<svg height="356.130971" viewBox="0 0 40.701353 52.004712" width="280.795573" xmlns="http://www.w3.org/2000/svg"><g fill="#0000d4"><path d="m2.25-.984375c-.042969.324219-.15625.585937-.34375.78125-.179687.1875-.402344.28125-.671875.28125-.335937 0-.601562-.1328125-.796875-.40625-.199219-.269531-.296875-.640625-.296875-1.109375 0-.457031.097656-.820313.296875-1.09375.195313-.28125.460938-.421875.796875-.421875.28125 0 .507813.09375.6875.28125.175781.1875.285156.4375.328125.75h-.5c-.023437-.15625-.078125-.28125-.171875-.375-.085937-.09375-.199219-.140625-.34375-.140625-.179687 0-.324219.09375-.4375.28125-.105469.179687-.15625.417969-.15625.71875 0 .3125.050781.558594.15625.734375.113281.179687.257813.265625.4375.265625.144531 0 .257813-.046875.34375-.140625.09375-.101563.148438-.238281.171875-.40625zm0 0" transform="matrix(1.3333334 0 0 1.3333334 .684331 44.755556)"/><path d="m.25 0v-2.875h1.109375c.269531 0 .472656.070312.609375.203125.132813.136719.203125.339844.203125.609375 0 .25-.070312.445312-.203125.578125-.042969.042969-.089844.078125-.140625.109375.019531.011719.039063.027344.0625.046875.15625.117187.234375.308594.234375.578125v.328125c0 .117187.00391.199219.015625.25.00781.042969.035156.0742187.078125.09375v.078125h-.53125c-.023437-.0507813-.039062-.125-.046875-.21875-.011719-.101563-.015625-.203125-.015625-.296875v-.15625c0-.15625-.027344-.269531-.078125-.34375-.054687-.070313-.140625-.109375-.265625-.109375h-.53125v1.125zm.5-1.59375h.5625c.125 0 .21875-.03125.28125-.09375s.09375-.160156.09375-.296875c0-.132813-.03125-.234375-.09375-.296875-.054687-.0625-.140625-.09375-.265625-.09375h-.578125zm0 0" transform="matrix(1.3333334 0 0 1.3333334 3.569178 44.755556)"/><path d="m.25 0v-2.875h1.734375v.515625h-1.234375v.59375h1.140625v.515625h-1.140625v.734375h1.28125v.515625zm0 0" transform="matrix(1.3333334 0 0 1.3333334 6.454025 44.755556)"/><path d="m.0625 0 .84375-2.875h.5625l.828125 2.875h-.515625l-.15625-.578125h-.890625l-.15625.578125zm1.125-2.21875-.3125 1.125h.609375zm0 0" transform="matrix(1.3333334 0 0 1.3333334 9.119593 44.755556)"/><path d="m.75 0v-2.359375h-.703125v-.515625h1.90625v.515625h-.703125v2.359375zm0 0" transform="matrix(1.3333334 0 0 1.3333334 12.004481 44.755556)"/><path d="m.203125 0v-2.875h.5v2.875zm0 0" transform="matrix(1.3333334 0 0 1.3333334 14.445887 44.755556)"/><path d="m.6875 0h-.453125v-2.875h.515625l.921875 1.984375v-1.984375h.46875v2.875h-.484375l-.96875-2.0625zm0 0" transform="matrix(1.3333334 0 0 1.3333334 15.556931 44.755556)"/><path d="m1.265625.078125c-.34375 0-.621094-.1328125-.828125-.40625-.199219-.269531-.296875-.640625-.296875-1.109375 0-.457031.101563-.820313.3125-1.09375.21875-.28125.507813-.421875.875-.421875.269531 0 .5.089844.6875.265625.1875.179687.296875.414062.328125.703125h-.5c-.023437-.132813-.085937-.242188-.1875-.328125-.09375-.09375-.203125-.140625-.328125-.140625-.210937 0-.375.09375-.5.28125-.125.179687-.1875.421875-.1875.734375 0 .324219.054688.574219.171875.75.125.167969.300781.25.53125.25.1875 0 .332031-.085938.4375-.265625.0625-.101563.101563-.222656.125-.359375h-.546875v-.484375h.984375v1.546875h-.328125l-.046875-.359375-.015625.03125c-.179687.2734375-.414062.40625-.703125.40625zm0 0" transform="matrix(1.3333334 0 0 1.3333334 18.441778 44.755556)"/><path d="m.71875 0-.671875-2.875h.53125l.390625 2.09375.3125-2.09375h.515625l.359375 2.109375.40625-2.109375h.484375l-.65625 2.875h-.46875l-.375-2.265625-.375 2.265625zm0 0" transform="matrix(1.3333334 0 0 1.3333334 22.661871 44.755556)"/><path d="m.25 0v-2.875h1.734375v.515625h-1.234375v.59375h1.140625v.515625h-1.140625v.734375h1.28125v.515625zm0 0" transform="matrix(1.3333334 0 0 1.3333334 26.433599 44.755556)"/><path d="m.0625 0 .84375-2.875h.5625l.828125 2.875h-.515625l-.15625-.578125h-.890625l-.15625.578125zm1.125-2.21875-.3125 1.125h.609375zm0 0" transform="matrix(1.3333334 0 0 1.3333334 29.099168 44.755556)"/><path d="m.25 0v-2.875h.5v2.359375h1.15625v.515625zm0 0" transform="matrix(1.3333334 0 0 1.3333334 31.984055 44.755556)"/><path d="m.75 0v-2.359375h-.703125v-.515625h1.90625v.515625h-.703125v2.359375zm0 0" transform="matrix(1.3333334 0 0 1.3333334 34.425462 44.755556)"/><path d="m.234375 0v-2.875h.5v1.078125h.90625v-1.078125h.5v2.875h-.5v-1.296875h-.90625v1.296875zm0 0" transform="matrix(1.3333334 0 0 1.3333334 36.866868 44.755556)"/><path d="m.25 0v-2.875h1.671875v.515625h-1.171875v.640625h1.046875v.515625h-1.046875v1.203125zm0 0" transform="matrix(1.3333334 0 0 1.3333334 3.457117 50.755557)"/><path d="m1.28125.078125c-.355469 0-.636719-.1328125-.84375-.40625-.199219-.269531-.296875-.640625-.296875-1.109375 0-.457031.097656-.820313.296875-1.09375.207031-.28125.488281-.421875.84375-.421875.34375 0 .613281.140625.8125.421875.207031.273437.3125.636719.3125 1.09375 0 .46875-.105469.839844-.3125 1.109375-.199219.2734375-.46875.40625-.8125.40625zm0-.515625c.1875 0 .335938-.085938.453125-.265625.125-.175781.1875-.421875.1875-.734375 0-.300781-.058594-.539063-.171875-.71875-.117187-.1875-.273437-.28125-.46875-.28125-.199219 0-.355469.09375-.46875.28125-.117187.179687-.171875.417969-.171875.71875 0 .3125.054688.558594.171875.734375.113281.179687.269531.265625.46875.265625zm0 0" transform="matrix(1.3333334 0 0 1.3333334 5.898524 50.755557)"/><path d="m.25 0v-2.875h1.109375c.269531 0 .472656.070312.609375.203125.132813.136719.203125.339844.203125.609375 0 .25-.070312.445312-.203125.578125-.042969.042969-.089844.078125-.140625.109375.019531.011719.039063.027344.0625.046875.15625.117187.234375.308594.234375.578125v.328125c0 .117187.00391.199219.015625.25.00781.042969.035156.0742187.078125.09375v.078125h-.53125c-.023437-.0507813-.039062-.125-.046875-.21875-.011719-.101563-.015625-.203125-.015625-.296875v-.15625c0-.15625-.027344-.269531-.078125-.34375-.054687-.070313-.140625-.109375-.265625-.109375h-.53125v1.125zm.5-1.59375h.5625c.125 0 .21875-.03125.28125-.09375s.09375-.160156.09375-.296875c0-.132813-.03125-.234375-.09375-.296875-.054687-.0625-.140625-.09375-.265625-.09375h-.578125zm0 0" transform="matrix(1.3333334 0 0 1.3333334 9.007533 50.755557)"/><path d="m.71875 0-.671875-2.875h.53125l.390625 2.09375.3125-2.09375h.515625l.359375 2.109375.40625-2.109375h.484375l-.65625 2.875h-.46875l-.375-2.265625-.375 2.265625zm0 0" transform="matrix(1.3333334 0 0 1.3333334 13.003423 50.755557)"/><path d="m.25 0v-2.875h1.734375v.515625h-1.234375v.59375h1.140625v.515625h-1.140625v.734375h1.28125v.515625zm0 0" transform="matrix(1.3333334 0 0 1.3333334 16.775192 50.755557)"/><path d="m.25 0v-2.875h.5v2.359375h1.15625v.515625zm0 0" transform="matrix(1.3333334 0 0 1.3333334 19.440761 50.755557)"/><path d="m.25 0v-2.875h.5v2.359375h1.15625v.515625zm0 0" transform="matrix(1.3333334 0 0 1.3333334 21.882167 50.755557)"/><path d="m.25 0v-2.875h1.109375c.238281 0 .425781.070312.5625.203125.132813.125.203125.304687.203125.53125 0 .21875-.074219.398437-.21875.53125-.023437.023437-.046875.042969-.078125.0625.050781.03125.097656.0625.140625.09375.15625.136719.234375.328125.234375.578125 0 .273437-.078125.484375-.234375.640625-.148437.15625-.351562.234375-.609375.234375zm.484375-2.375v.625h.546875c.125 0 .21875-.023438.28125-.078125.0625-.050781.09375-.128906.09375-.234375 0-.113281-.03125-.191406-.09375-.234375-.0625-.050781-.167969-.078125-.3125-.078125zm0 1.109375v.765625h.625c.113281 0 .195313-.03125.25-.09375.0625-.0625.09375-.15625.09375-.28125 0-.132813-.03125-.234375-.09375-.296875s-.164062-.09375-.296875-.09375zm0 0" transform="matrix(1.3333334 0 0 1.3333334 24.323573 50.755557)"/><path d="m.25 0v-2.875h1.734375v.515625h-1.234375v.59375h1.140625v.515625h-1.140625v.734375h1.28125v.515625zm0 0" transform="matrix(1.3333334 0 0 1.3333334 27.20842 50.755557)"/><path d="m.203125 0v-2.875h.5v2.875zm0 0" transform="matrix(1.3333334 0 0 1.3333334 29.873989 50.755557)"/><path d="m.6875 0h-.453125v-2.875h.515625l.921875 1.984375v-1.984375h.46875v2.875h-.484375l-.96875-2.0625zm0 0" transform="matrix(1.3333334 0 0 1.3333334 30.985073 50.755557)"/><path d="m1.265625.078125c-.34375 0-.621094-.1328125-.828125-.40625-.199219-.269531-.296875-.640625-.296875-1.109375 0-.457031.101563-.820313.3125-1.09375.21875-.28125.507813-.421875.875-.421875.269531 0 .5.089844.6875.265625.1875.179687.296875.414062.328125.703125h-.5c-.023437-.132813-.085937-.242188-.1875-.328125-.09375-.09375-.203125-.140625-.328125-.140625-.210937 0-.375.09375-.5.28125-.125.179687-.1875.421875-.1875.734375 0 .324219.054688.574219.171875.75.125.167969.300781.25.53125.25.1875 0 .332031-.085938.4375-.265625.0625-.101563.101563-.222656.125-.359375h-.546875v-.484375h.984375v1.546875h-.328125l-.046875-.359375-.015625.03125c-.179687.2734375-.414062.40625-.703125.40625zm0 0" transform="matrix(1.3333334 0 0 1.3333334 33.86992 50.755557)"/><path d="m22.245892 1.3272052h-3.343747l.729174 5.161458-.838547.119786-.869787-6.12500002h5.296867l-.864573 6.12500002-.84376-.119786zm-12.5677069 25.2968758 10.8645869-19.6458338 10.916667 19.5989588c-6.958333 0-14.656254.05208-21.7812539.04688m11.4843739-2.9375c-1.364574-.385417-1.718747.05729-2.67708.1875-.0156.0104-.0364.02604-.05213.05208-.05213 0-.104133.01563-.17188.03125 0-.08333 0-.182293.0156-.281251.609374-.421875.89584-.494791 1.72396-.734375.0312-.05208.06773-.109373.119734-.166667 0-.208333 0-.421874.0156-.645833-.0156-.02604-.05213-.05729-.08333-.08333h-.697906c-.0156.02604-.05213.05729-.08853.08333 0 .135417.135414.203125.213547.322917 0 .04167 0 .08333.0156.140624l-1.223947-.01563-.01067-.125c.05213-.05729.119866-.114587.187506-.182292v-.239584c-.0156-.01563-.0312-.04167-.06773-.06771-3.02084-.489583-2.859374-3.765625-.2448-4.609375.08853-.04688.192707-.09896.29688-.15625 0-.437501 0-.869791.0156-1.322917-.05213-.02604-.104133-.05208-.17188-.08333v-.192708h1.255213c0 .05208.0156.125.0312.192708-.05213.04167-.104133.08333-.17188.140625v.223958c.06773.05729.312494.677084.364587.802084.0156 0 .0364.01563.06773.03125h.17708c.0156-.03125.05213-.07292.08333-.114587 0-.78125.05213-1.5625.05213-2.348958-.0156-.05208-.0312-.125-.05213-.192708-.05213-.08855-.104134-.182292-.17188-.281251-.0364-.03125-.06773-.05729-.119734-.08855v-.192708s.0156-.01563.0312-.03125c.156254-.0104.312494-.02604.47396-.04167h.744787c.08853 0 .192707.01563.29688.03125 0 .06771-.0208.151041-.03653.234374-.05213.04688-.104134.08855-.171867.145834-.0208.04167-.03653.08333-.05213.135417-.0208.01563-.0364.03125-.07293.04688-.0156.234375-.0312.489583-.05213.739583v1.84375c.06253.192708.0416.166667.229173.28125.135414 0 .29688 0 .45312.01563l-.0208-1.619793h1.114587c0 .07292-.0156.156251-.03653.239584l-.171867.140626c-.130267.515624-.0312.848957 0 1.406249.05213.02604.104133.05729.171867.09896.5.05729.838546.114587 1.307293.114587.0312.0104.06773.02604.119733.03645l.296881.776042c-.08853 0-.192707-.01563-.296881-.02604-.239573-.197916-.958333-.296875-1.270826-.369792-.17188 0-.208334-.02604-.32812.07292v2.583333c.104133.08855.135413.114587.208333.223959.437493-.114587.90104-.223959 1.270827-.447918.14584 0 .22396.0104.29688.125-.484374.390626-1.265627.520834-1.72396.885418-.0156.255208-.03653.505208-.05213.760416.05213.06771.104134.15625.171867.239584 0 .05729 0 .125-.0156.197916h-.593747c-.0156-.01563-.0312-.03125-.05213-.04167h-.119867c-.0156.0104-.0364.02604-.05213.04167-.08853 0-.192707 0-.296867-.01563-.0156-.01563-.0312-.02604-.05213-.04167 0-.130213 0-.255208.0208-.380208-.0208-.01563-.03653-.02604-.05213-.04167-.0208-.04167-.03653-.08333-.05213-.140626-.0364-.04167-.08853-.08333-.140626-.125h-.244787s-.0156.0104-.0364.02604v.84375c0 .06771.0208.15625.0364.239584 1.369787 0 3.218747.963541 4.468747.151041.08853-.0104.192707-.02604.29688-.04167.0364-.02604.06773-.05208.119733-.09375h.229174c.0156.0104.0364.04167.05213.06771-.40104.484375-1.20312.916667-1.911453 1.010417-.661467.08855-2.791667-.104174-3.135427-.380209m-1.80728-2.484374s-.0156 0-.03653-.01563l-.05213-.239584-.0156-2.765624c.06773 0 .140627 0 .229173.0104.192707.395833.42708.791667.65624 1.166667 0 .59375.026 1.1875-.0312 1.770833-.182293.05208-.47396.125-.75.07292m2.15624-.817709c-.05213-.05208-.17708-.375-.208333-.421875-.395827-.635416-.390627-1.463541-.296867-2.161459.22916-.18229.364574-.156249.6302-.02604.109334.875.135427 1.734375.05213 2.609375-.05213 0-.135427.04688-.177094 0m-3.30208.505209c-1.22916-.302084-1.333333-1.859376-.124933-2.833333.05213-.01563.104133-.03125.17708-.04688h.119867c.0156 0 .0364.01563.05213.03125 0 .953126 0 1.911459.0156 2.864583l-.0156.01563c-.06773 0-.135413-.01563-.22396-.03125m-5.72396 4.078125c5.385413-.0052 10.77084-.03645 16.156254-.04688l-8.093784-14.526012zm-1.40104.828125c6.317706 0 12.640627-.04167 18.963547-.04688l-9.5-17.0625008zm1.72396 1.802084h.739586v2.041667h-.739586zm2.57812 0h.687506l.90104 1.130208v-1.130178h.692707v2.041667h-.692707l-.89584-1.119792v1.119792h-.692706zm4.088547 0h1.093746c.218747 0 .39584.02604.52604.07812.135427.04688.2448.119787.328134.213543.08853.09375.15104.203124.192706.328124.0364.125.05733.255209.05733.395833 0 .218751-.0312.385417-.08853.505209-.05733.119787-.135413.21875-.239586.302083-.104134.08333-.213534.135417-.333334.161459-.161453.03645-.307293.05729-.442706.05729h-1.093747zm.739586.463541v1.114583h.17708c.156254 0 .265627-.01563.333334-.04688.06253-.02604.114533-.07812.15104-.151041.0364-.07292.05733-.192708.05733-.354167 0-.218751-.0416-.364584-.124933-.442708-.08333-.07812-.218747-.119787-.411454-.119787zm3.182294-.463541h.739573v2.041667h-.739573zm4.041667 1.703124h-.838547l-.114533.338543h-.7552l.895826-2.041667h.807294l.895826 2.041667h-.770826zm-.156254-.442708-.260413-.729167-.265627.729167zm1.270827-25.8281258-1.567707-.567708-1.57292-.572916-1.07812 5.093749-.82812-.171875 1.28124-6.05208402 2.484387.90625102 2.489573.906249-2.90624 5.453126-.75-.395833zm5.34896 3.760417-1.281253-1.072917-1.27604-1.072916-2.760414 4.4166665-.718746-.4479175 3.27604-5.244791 2.02604 1.697916 2.02604 1.703126-4.593747 4.1354158-.567707-.630208zm3.739587 5.3645828-.833333-1.447916-.838547-1.4479173-4.093747 3.2083333-.525093-.671864 4.869787-3.8072918 1.32292 2.2968758 1.32292 2.291667-5.72396 2.30729-.317707-.786457zm1.682294 6.31771-.291667-1.645834-.286467-1.645833-4.942707 1.609374-.260413-.807292 5.864587-1.911458.458333 2.609376.463534 2.604167-6.166667.213541-.0312-.848959zm-.583334 6.510416.583334-3.291667-5.192707-.177083.0312-.848958 6.161467.213541-.916667 5.213542-5.859374-1.911458.260414-.802084zm-2.77084 5.921875.833333-1.447916.838547-1.447918-4.812507-1.9375.31772-.786457 5.713534 2.302083-2.645827 4.583333-4.854173-3.796875.52084-.666666zm-4.635413 4.614584 2.562506-2.151041-3.854173-3.463543.567706-.630208 4.578134 4.114584-2.026053 1.703124-2.03124 1.703125-3.255214-5.223958.718747-.447916zm-5.927081 2.75 1.567707-.572917 1.57292-.572916-2.437507-4.567708.75-.395834 2.89584 5.427083-4.979173 1.8125-1.270827-6.020833.82812-.177083zm-6.515627.557292h3.343747l-.72396-5.130209.838547-.119787.859373 6.098958h-5.291667l.859374-6.098958.838546.119787zm-6.312507-1.703125 3.140627 1.145833 1.078133-5.072917.828121.177084-1.276041 6.020833-4.97396-1.807292 2.890627-5.4375.75.401041zm-5.3489464-3.760418 1.2812401 1.072918 1.2812534 1.078125 2.7447869-4.401043.71876.447918-3.2604269 5.229166-2.0260401-1.703125-2.0312401-1.703125 4.5885331-4.119791.567707.630208zm-3.7395873-5.364583 1.6718672 2.895834 4.0885469-3.197918.52604.666667-4.8593741 3.802084-2.645826-4.583333 5.7187467-2.307292.3177067.786458zm-1.677117-6.317678.57812 3.291667 4.937494-1.604167.2656267.802083-5.8697867 1.911459-.91666705-5.213542 6.17188035-.208333.0312.843749zm.57812-6.510418-.286453 1.645834-.291667 1.645833 5.1979073.177084-.026.848958-6.17708035-.208334.46354705-2.609375.458333-2.604166 5.8750003 1.911458-.2656266.807292zm2.7760406-5.9166663-1.6718806 2.8958333 4.828134 1.942708-.3177066.786459-5.7291734-2.3125 2.64584-4.5833338 4.8697868 3.8124998-.5208267.666667zm4.6302135-4.6145825-2.5572934 2.145833 3.875 3.4895828-.567707.625-4.5989598-4.1354158 2.0260401-1.703126 2.0260397-1.697917 3.27604 5.25-.718746.4479175zm5.9322936-2.75521-1.57292.572918-1.567707.572916 2.447907 4.598959-.75.395833-2.90624-5.458334 2.489573-.906249 2.484387-.90625102 1.28124 6.05729202-.82812.171875zm0 0" fill-rule="evenodd"/></g></svg>